<?xml version="1.0" encoding="utf-8"?>
<!-- Generator: Adobe Illustrator 16.0.0, SVG Export Plug-In . SVG Version: 6.00 Build 0)  -->
<!DOCTYPE svg PUBLIC "-//W3C//DTD SVG 1.1//EN" "http://www.w3.org/Graphics/SVG/1.1/DTD/svg11.dtd">
<svg version="1.1" id="图层_1" xmlns="http://www.w3.org/2000/svg" xmlns:xlink="http://www.w3.org/1999/xlink" x="0px" y="0px"
	 width="179px" height="127.333px" viewBox="0 0 179 127.333" enable-background="new 0 0 179 127.333" xml:space="preserve">
<polygon fill="#BBBBBB" points="161.587,17.517 161.587,85.926 20.497,85.926 20.497,17.517 56.837,70.958 91.047,17.517 
	125.247,70.958 "/>
<g opacity="0.09">
	<g>
		<g>
			<defs>
				<rect id="SVGID_1_" x="91.047" y="17.517" width="70.54" height="68.409"/>
			</defs>
			<use xlink:href="#SVGID_1_"  overflow="visible" fill="#BBBBBB"/>
			<clipPath id="SVGID_2_">
				<use xlink:href="#SVGID_1_"  overflow="visible"/>
			</clipPath>
			<polygon clip-path="url(#SVGID_2_)" fill="#BBBBBB" points="161.587,17.517 161.587,85.926 91.047,85.926 91.047,17.517 
				125.247,70.958 			"/>
		</g>
	</g>
</g>
<rect x="20.497" y="92.208" fill="#CCCCCC" width="141.09" height="19.239"/>
<g opacity="0.3">
	<g>
		<g>
			<defs>
				<rect id="SVGID_3_" x="91.047" y="92.208" width="70.54" height="19.239"/>
			</defs>
			<use xlink:href="#SVGID_3_"  overflow="visible" fill="#878787"/>
			<clipPath id="SVGID_4_">
				<use xlink:href="#SVGID_3_"  overflow="visible"/>
			</clipPath>
			<rect x="91.047" y="92.208" clip-path="url(#SVGID_4_)" fill="#878787" width="70.54" height="19.239"/>
		</g>
	</g>
</g>
<g opacity="0.2">
	<defs>
		<rect id="SVGID_5_" x="45.96" y="17.517" opacity="0.2" width="45.085" height="68.407"/>
	</defs>
	<clipPath id="SVGID_6_">
		<use xlink:href="#SVGID_5_"  overflow="visible"/>
	</clipPath>
	<polygon clip-path="url(#SVGID_6_)" fill="#878787" points="56.839,70.961 45.96,85.924 55.553,85.924 91.045,17.517 	"/>
</g>
<g>
	<defs>
		<rect id="SVGID_7_" x="91.045" y="17.517" width="45.084" height="68.407"/>
	</defs>
	<clipPath id="SVGID_8_">
		<use xlink:href="#SVGID_7_"  overflow="visible"/>
	</clipPath>
	<polygon opacity="0.2" clip-path="url(#SVGID_8_)" fill="#878787" points="125.25,70.961 136.129,85.924 126.537,85.924 
		91.044,17.517 	"/>
</g>
<path fill="#BFBFBF" d="M29.324,17.517c0,4.873-3.951,8.825-8.826,8.825c-4.874,0-8.824-3.952-8.824-8.825s3.95-8.824,8.824-8.824
	C25.373,8.693,29.324,12.644,29.324,17.517"/>
<path fill="#BFBFBF" d="M170.416,17.517c0,4.873-3.951,8.825-8.825,8.825c-4.875,0-8.825-3.952-8.825-8.825s3.95-8.824,8.825-8.824
	C166.465,8.693,170.416,12.644,170.416,17.517"/>
<path fill="#BFBFBF" d="M99.87,17.517c0,4.873-3.951,8.825-8.825,8.825c-4.873,0-8.824-3.952-8.824-8.825s3.951-8.824,8.824-8.824
	S99.87,12.644,99.87,17.517"/>
</svg>
